<?xml version="1.0" encoding="utf-8"?>
<!-- Generator: Adobe Illustrator 22.0.1, SVG Export Plug-In . SVG Version: 6.00 Build 0)  -->
<svg version="1.1" id="Layer_1" xmlns="http://www.w3.org/2000/svg" xmlns:xlink="http://www.w3.org/1999/xlink" x="0px" y="0px"
	 viewBox="0 0 500 500" enable-background="new 0 0 500 500" xml:space="preserve">
<path fill="none" stroke="#000000" stroke-miterlimit="10" d="M88.5,284c-11.3-12.9-20.8-27.3-28.3-43c12.2-21,35-35.1,61-35.1
	c21.1,0,40,9.2,52.9,23.9"/>
<g>
	<path d="M302.1,328.3c0.9,0.7,1.8,1.4,2.8,2c0.2-0.1,0.4-0.2,0.6-0.3C304.3,329.5,303.2,329,302.1,328.3L302.1,328.3z"/>
</g>
<g>
	<path d="M337.1,197.4c25.2,0,48.4,13.6,60.7,35.6c-7.5,17.9-17.8,34.5-30.6,49.3c-13.3-20.4-35.6-32.6-60-32.6
		c-9.5,0-18.7,1.8-27.4,5.4c-2.7-5.6-4.7-11.5-5.8-17.7C285.5,213.1,310.2,197.4,337.1,197.4 M337.1,196.4
		c-28.4,0-52.9,16.8-64.1,40.9c1.2,6.7,3.4,13.2,6.3,19.1c8.6-3.7,18-5.7,27.9-5.7c25.3,0,47.4,13.3,59.9,33.2
		c13.2-15,24-32.2,31.8-51C387,211.2,363.8,196.4,337.1,196.4L337.1,196.4z"/>
</g>
<g>
	<path d="M409.4,199.1c-0.1,0.6-0.3,1.2-0.4,1.9v0c0.7,1.9,1.3,3.7,1.8,5.7C410.3,204.1,409.9,201.6,409.4,199.1L409.4,199.1z"/>
</g>
<path fill="none" stroke="#000000" stroke-miterlimit="10" d="M88.5,284c-11.3-12.9-20.8-27.3-28.3-43c12.2-21,35-35.1,61-35.1
	c21.1,0,40,9.2,52.9,23.9"/>
<g>
	<path fill="#00A8E8" d="M409.4,199.1C409.4,199.1,409.4,199.1,409.4,199.1c-0.1,0.7-0.3,1.3-0.4,1.9c-9.8-27.2-35.8-46.7-66.4-46.7
		c-39,0-70.6,31.6-70.6,70.6c0,4.2,0.4,8.4,1.1,12.4c1.2,6.7,3.4,13.2,6.3,19.1c8.6-3.7,18-5.7,27.9-5.7c25.3,0,47.4,13.3,59.9,33.2
		c-3,3.4-6.1,6.7-9.3,9.9c4.4-1,8.6-2.3,12.6-4.1c16-6.9,28.9-19.5,36.2-35.2c0.7,4,1.1,8.2,1.1,12.4c0,23.9-11.8,45-29.9,57.7
		c-11.5,8.1-25.5,12.9-40.6,12.9c-11.4,0-22.1-2.7-31.7-7.5c-1.1-0.6-2.2-1.1-3.3-1.8c0.9,0.7,1.8,1.4,2.8,2
		c18.4,13.1,39.3,23,61.9,28.7c-7.9,9-16.7,17.2-26.2,24.5c0,0,0,0-0.1,0c-9.9,5.3-21.2,8.3-33.2,8.3c-13,0-25.1-3.5-35.5-9.6
		c-2.3,21.8-20.5,38.9-42.7,39.5c-0.4,0-0.8,0-1.1,0s-0.8,0-1.1,0c-22.3-0.6-40.4-17.6-42.7-39.5c-10.4,6.1-22.6,9.6-35.5,9.6
		c-12,0-23.3-3-33.2-8.3c0,0,0,0,0,0c-9.6-7.4-18.5-15.7-26.5-24.8c11.2-2.9,22-6.8,32.2-11.7c-15.8-0.1-30.4-5.4-42.1-14.2
		c-16.6-12.5-27.5-32.2-28.1-54.5c8.2,9.3,18.8,16.4,30.8,20.3c7,2.3,14.4,3.5,22.1,3.5c1.1,0,2.2,0,3.3-0.1
		c-6.6-5.6-12.7-11.7-18.4-18.3c12.5-20,34.6-33.2,59.9-33.2c7.7,0,15.2,1.2,22.1,3.5c2.4-7.1,3.7-14.7,3.7-22.5c0-0.6,0-1.3,0-1.9
		c-1-38.1-32.2-68.7-70.6-68.7c-21.8,0-41.3,9.9-54.3,25.5c11-39.5,34.8-73.8,66.7-97.9c0.8-0.6,1.6-1.2,2.5-1.8
		C137,73.3,158.1,63.1,181,57.1c0,0,0,0,0,0.1c28.7,32.6,46.1,75.4,46.1,122.3c0,34.7-9.5,67.1-26.1,94.9c11.2,12.5,17.9,29,17.9,47
		c0,4.6-0.4,9-1.3,13.4c-0.8,4.1-1.9,8.1-3.4,11.9c4.5,0.3,9,0.5,13.5,0.5s9.1-0.2,13.5-0.5c-1.5-3.8-2.6-7.8-3.4-11.9
		c-0.8-4.3-1.3-8.8-1.3-13.4c0-17.6,6.5-33.7,17.1-46.1c-16.9-27.9-26.6-60.7-26.6-95.8c0-47,17.5-90,46.4-122.6
		C341.9,74.2,395.1,129.5,409.4,199.1z"/>
</g>
<g>
	<path d="M302.1,328.3c0.9,0.7,1.8,1.4,2.8,2c0.2-0.1,0.4-0.2,0.6-0.3C304.3,329.5,303.2,329,302.1,328.3L302.1,328.3z"/>
</g>
<g>
	<path d="M337.1,197.4c25.2,0,48.4,13.6,60.7,35.6c-7.5,17.9-17.8,34.5-30.6,49.3c-13.3-20.4-35.6-32.6-60-32.6
		c-9.5,0-18.7,1.8-27.4,5.4c-2.7-5.6-4.7-11.5-5.8-17.7C285.5,213.1,310.2,197.4,337.1,197.4 M337.1,196.4
		c-28.4,0-52.9,16.8-64.1,40.9c1.2,6.7,3.4,13.2,6.3,19.1c8.6-3.7,18-5.7,27.9-5.7c25.3,0,47.4,13.3,59.9,33.2
		c13.2-15,24-32.2,31.8-51C387,211.2,363.8,196.4,337.1,196.4L337.1,196.4z"/>
</g>
<g>
	<path d="M335.3,12c23.2,16.7,42.5,38.8,55.8,64c13.8,26.2,21.1,55.9,21.1,85.7c0,10.9-1,21.7-2.8,32.3
		c-15.5-66.7-67.5-120.4-134-137.9C292.2,37.5,312.4,22.6,335.3,12 M335.4,10.9c-23.7,10.9-44.8,26.6-61.9,46
		c68.4,17.3,121.6,72.7,135.9,142.3c2.5-12.1,3.8-24.5,3.8-37.3C413.1,99.5,382.4,44.5,335.4,10.9L335.4,10.9z"/>
</g>
<g>
	<path d="M367.2,358.6c-0.1,0.2-0.3,0.4-0.4,0.5c0,0,0.1,0,0.1,0C367,358.9,367.1,358.7,367.2,358.6L367.2,358.6z"/>
</g>
<g>
	<path d="M302.1,328.3c0.9,0.7,1.8,1.4,2.8,2c0.2-0.1,0.4-0.2,0.6-0.3C304.3,329.5,303.2,329,302.1,328.3L302.1,328.3z"/>
</g>
<g>
	<path d="M337.1,197.4c25.2,0,48.4,13.6,60.7,35.6c-7.5,17.9-17.8,34.5-30.6,49.3c-13.3-20.4-35.6-32.6-60-32.6
		c-9.5,0-18.7,1.8-27.4,5.4c-2.7-5.6-4.7-11.5-5.8-17.7C285.5,213.1,310.2,197.4,337.1,197.4 M337.1,196.4
		c-28.4,0-52.9,16.8-64.1,40.9c1.2,6.7,3.4,13.2,6.3,19.1c8.6-3.7,18-5.7,27.9-5.7c25.3,0,47.4,13.3,59.9,33.2
		c13.2-15,24-32.2,31.8-51C387,211.2,363.8,196.4,337.1,196.4L337.1,196.4z"/>
</g>
<g>
	<path d="M409.4,199.1c-0.1,0.6-0.3,1.2-0.4,1.9v0c0.7,1.9,1.3,3.7,1.8,5.7C410.3,204.1,409.9,201.6,409.4,199.1L409.4,199.1z"/>
</g>
<g>
	<path fill="#502274" d="M413.1,161.8c0,12.8-1.3,25.3-3.8,37.3c-14.2-69.6-67.5-125-135.9-142.3c17.1-19.3,38.1-35.1,61.9-46
		C382.4,44.5,413.1,99.5,413.1,161.8z"/>
</g>
<g>
	<path d="M88.4,358.6c0,0.1,0.1,0.2,0.1,0.2c0,0,0,0,0,0C88.6,358.7,88.5,358.6,88.4,358.6L88.4,358.6z"/>
</g>
<path fill="none" stroke="#000000" stroke-miterlimit="10" d="M88.5,284c-11.3-12.9-20.8-27.3-28.3-43c12.2-21,35-35.1,61-35.1
	c21.1,0,40,9.2,52.9,23.9"/>
<g>
	<path d="M337.1,197.4c25.2,0,48.4,13.6,60.7,35.6c-7.5,17.9-17.8,34.5-30.6,49.3c-13.3-20.4-35.6-32.6-60-32.6
		c-9.5,0-18.7,1.8-27.4,5.4c-2.7-5.6-4.7-11.5-5.8-17.7C285.5,213.1,310.2,197.4,337.1,197.4 M337.1,196.4
		c-28.4,0-52.9,16.8-64.1,40.9c1.2,6.7,3.4,13.2,6.3,19.1c8.6-3.7,18-5.7,27.9-5.7c25.3,0,47.4,13.3,59.9,33.2
		c13.2-15,24-32.2,31.8-51C387,211.2,363.8,196.4,337.1,196.4L337.1,196.4z"/>
</g>
<g>
	<path d="M367.2,358.6c-0.1,0.2-0.3,0.4-0.4,0.5c-7.9,9-16.7,17.2-26.2,24.5c10.8-5.7,19.8-14.2,26.4-24.5
		C367,358.9,367.1,358.7,367.2,358.6L367.2,358.6z"/>
</g>
<g>
	<path d="M302.1,328.3c0.9,0.7,1.8,1.4,2.8,2c0.2-0.1,0.4-0.2,0.6-0.3C304.3,329.5,303.2,329,302.1,328.3L302.1,328.3z"/>
</g>
<g>
	<path fill="#001313" d="M399,233c-7.8,18.7-18.6,35.9-31.8,51c-12.5-20-34.6-33.2-59.9-33.2c-9.9,0-19.3,2-27.9,5.7
		c-3-5.9-5.1-12.4-6.3-19.1c11.2-24.2,35.7-40.9,64.1-40.9C363.8,196.4,387,211.2,399,233z"/>
</g>
<g>
	<path d="M121.2,206.9c19.8,0,38.7,8.5,51.9,23.3c0,0.5,0,1,0,1.5c0,7.3-1.1,14.4-3.3,21.3c-6.9-2.2-14.1-3.3-21.5-3.3
		c-24.4,0-46.8,12.2-60,32.6c-10.8-12.5-19.9-26.4-27-41.3c6-10.1,14.5-18.6,24.7-24.6C96.7,210.2,108.9,206.9,121.2,206.9
		 M121.2,205.9c-26,0-48.8,14.1-61,35.1c7.4,15.7,16.9,30.1,28.3,43c12.5-20,34.6-33.2,59.9-33.2c7.7,0,15.2,1.2,22.1,3.5
		c2.4-7.1,3.7-14.7,3.7-22.5c0-0.6,0-1.3,0-1.9C161.2,215.1,142.3,205.9,121.2,205.9L121.2,205.9z"/>
</g>
<g>
	<path fill="#001313" d="M174.2,231.7c0,7.9-1.3,15.5-3.7,22.5c-7-2.3-14.4-3.5-22.1-3.5c-25.3,0-47.4,13.3-59.9,33.2
		c-11.3-12.9-20.8-27.3-28.3-43c12.2-21,35-35.1,61-35.1c21.1,0,40,9.2,52.9,23.9C174.2,230.4,174.2,231.1,174.2,231.7z"/>
</g>
<g>
	<path fill="none" d="M115.1,383.6c-10.9-5.8-20-14.4-26.5-24.8c-0.1-0.1-0.1-0.2-0.1-0.2c0.1,0.1,0.1,0.2,0.2,0.2
		C96.6,367.9,105.5,376.2,115.1,383.6z"/>
</g>
<path fill="#502274" d="M119.9,11.2C73.2,44.9,42.7,99.8,42.7,161.8c0,9.7,0.8,19.2,2.2,28.5c0.6-0.8,1.3-1.5,2.3-2
	c0.2-0.6,0.5-1.2,0.9-1.7c4.5-16.4,32.2-101.4,133.2-129.4C164.3,37.9,143.5,22.2,119.9,11.2z"/>
<rect x="69.5" y="433.2" fill="none" width="387.7" height="38.8"/>
<text transform="matrix(1 0 0 1 69.546 461.9668)" font-family="'Corbel'" font-size="40.7282px">Academy  University</text>
</svg>
